<?xml version="1.0" encoding="UTF-8" standalone="no"?>
<!DOCTYPE svg PUBLIC "-//W3C//DTD SVG 1.1//EN" "http://www.w3.org/Graphics/SVG/1.1/DTD/svg11.dtd">
<svg xmlns="http://www.w3.org/2000/svg" version="1.1" viewBox="0.00 0.00 448.00 127.00">
<path stroke="#2a374a" stroke-width="0.10" fill="none" stroke-linecap="butt" vector-effect="non-scaling-stroke" d="
  M 129.64 27.33
  L 129.65 49.67"
/>
<g fill="#2c3b58">
<path d="
  M 39.39 45.19
  C 38.36 44.16 36.60 44.89 36.60 46.35
  L 36.60 110.47
  C 36.60 110.85 36.54 111.24 36.42 111.60
  L 35.61 114.15
  C 35.58 114.28 35.52 114.40 35.45 114.51
  Q 32.13 119.73 25.33 120.76
  Q 16.89 122.03 11.02 117.78
  Q 5.78 113.98 5.78 106.48
  Q 5.80 74.20 5.73 28.77
  Q 5.73 23.42 8.31 18.83
  C 15.48 6.08 30.07 0.15 43.54 7.01
  Q 47.31 8.93 52.56 14.26
  Q 94.92 57.23 127.67 90.08
  C 128.31 90.73 128.78 91.53 129.04 92.40
  C 131.35 100.34 127.20 108.89 121.04 114.01
  Q 117.57 116.89 113.08 117.08
  C 111.98 117.12 110.91 116.71 110.13 115.93
  L 39.39 45.19
  Z"
/>
<path d="
  M 129.64 27.33
  L 129.65 49.67
  L 129.66 77.38
  C 129.66 78.06 128.84 78.40 128.36 77.92
  Q 114.19 63.77 104.10 53.64
  Q 102.24 51.78 102.23 49.79
  Q 102.12 33.30 102.15 12.22
  C 102.15 11.86 102.22 11.50 102.36 11.16
  Q 103.85 7.52 106.16 6.36
  Q 114.81 2.02 124.24 5.36
  Q 127.58 6.54 129.03 9.08
  Q 129.75 10.33 129.72 15.06
  Q 129.69 21.22 129.64 27.33
  Z"
/>
</g>
<g fill="#00b39a">
<path d="
  M 404.26 40.36
  Q 406.28 40.36 408.16 40.49
  C 408.52 40.52 408.84 40.75 408.97 41.09
  L 428.90 89.90
  C 429.01 90.18 428.80 90.48 428.50 90.48
  L 419.04 90.48
  C 418.77 90.48 418.53 90.32 418.43 90.07
  L 414.44 80.30
  C 414.33 80.03 414.07 79.84 413.77 79.84
  Q 412.57 79.80 404.24 79.79
  Q 395.91 79.79 394.71 79.82
  C 394.41 79.83 394.15 80.02 394.04 80.29
  L 390.04 90.05
  C 389.94 90.30 389.70 90.46 389.43 90.46
  L 379.97 90.45
  C 379.67 90.45 379.46 90.15 379.57 89.87
  L 399.55 41.08
  C 399.69 40.75 400.00 40.52 400.37 40.49
  Q 402.24 40.35 404.26 40.36
  Z
  M 403.98 72.07
  Q 410.66 72.12 410.82 72.10
  C 411.13 72.06 411.35 71.78 411.30 71.48
  Q 411.17 70.57 409.87 67.31
  Q 408.46 63.74 404.33 52.84
  Q 404.26 52.64 404.12 52.64
  Q 403.98 52.64 403.90 52.84
  Q 399.62 63.68 398.16 67.23
  Q 396.82 70.47 396.68 71.38
  C 396.62 71.68 396.83 71.96 397.14 72.00
  Q 397.30 72.02 403.98 72.07
  Z"
/>
<rect x="434.07" y="40.37" width="10.08" height="50.10" rx="0.34"/>
</g>
<g fill="#28323b">
<path d="
  M 129.64 27.33
  L 129.65 49.67
  L 129.64 27.33
  Z"
/>
<circle cx="198.57" cy="44.82" r="5.96"/>
<path d="
  M 326.80 41.64
  C 328.31 44.39 327.72 48.10 325.11 49.84
  C 323.41 50.99 319.67 50.97 317.93 49.53
  Q 316.56 48.39 316.09 46.68
  Q 314.82 42.10 319.09 39.43
  C 319.37 39.26 319.68 39.14 320.00 39.07
  Q 322.54 38.55 324.01 39.28
  Q 326.07 40.29 326.80 41.64
  Z"
/>
<path d="
  M 281.95 56.95
  C 281.95 57.15 282.19 57.26 282.34 57.12
  C 287.28 52.54 293.64 51.55 300.08 54.09
  Q 305.62 56.26 308.81 61.10
  Q 311.38 64.99 311.47 69.71
  C 311.55 73.83 311.66 78.08 309.64 81.70
  C 304.43 91.04 294.15 93.90 284.43 89.08
  C 284.17 88.95 283.93 88.78 283.73 88.56
  Q 283.03 87.79 282.38 87.46
  C 282.16 87.35 281.91 87.51 281.91 87.75
  L 281.91 89.94
  C 281.91 90.23 281.67 90.46 281.38 90.46
  L 272.99 90.46
  C 272.62 90.46 272.32 90.16 272.32 89.79
  L 272.32 39.31
  C 272.32 39.18 272.42 39.08 272.55 39.08
  L 281.69 39.08
  C 281.83 39.08 281.95 39.20 281.95 39.34
  L 281.95 56.95
  Z
  M 301.9538 70.8391
  C 301.80 65.73 297.54 61.71 292.4232 61.8578
  L 290.6239 61.9112
  C 285.51 62.06 281.49 66.33 281.6427 71.4419
  L 281.7062 73.5809
  C 281.86 78.69 286.12 82.71 291.2368 82.5622
  L 293.0361 82.5088
  C 298.15 82.36 302.17 78.09 302.0173 72.9781
  L 301.9538 70.8391
  Z"
/>
<path d="
  M 153.80 54.76
  C 153.80 54.35 154.13 54.02 154.54 54.02
  L 162.24 54.02
  C 162.61 54.02 162.91 54.32 162.91 54.69
  L 162.91 57.56
  C 162.91 57.90 163.36 58.02 163.53 57.73
  Q 165.29 54.73 169.95 52.97
  C 170.26 52.86 170.59 52.79 170.92 52.76
  Q 186.66 51.60 187.47 67.59
  Q 187.69 71.98 187.53 90.03
  C 187.52 90.27 187.33 90.46 187.09 90.46
  L 178.30 90.46
  C 178.07 90.46 177.88 90.27 177.88 90.04
  L 177.88 67.14
  C 177.88 66.79 177.81 66.44 177.68 66.11
  Q 175.58 60.87 169.00 61.90
  C 164.22 62.65 162.83 67.27 162.87 71.75
  Q 162.94 79.99 162.90 90.13
  C 162.90 90.31 162.75 90.46 162.57 90.46
  L 154.17 90.46
  C 153.97 90.46 153.80 90.29 153.80 90.09
  L 153.80 54.76
  Z"
/>
<path d="
  M 219.70 58.20
  C 219.74 58.41 220.03 58.44 220.11 58.25
  Q 221.06 56.05 223.30 54.68
  Q 230.48 50.28 237.73 55.01
  C 237.92 55.13 238.08 55.27 238.23 55.43
  L 240.45 57.83
  C 240.68 58.09 241.09 58.08 241.32 57.82
  Q 246.75 51.49 255.05 52.76
  Q 261.95 53.81 265.06 59.63
  Q 266.69 62.67 266.43 72.06
  Q 266.35 74.78 266.40 89.92
  C 266.40 90.22 266.16 90.46 265.87 90.46
  L 257.42 90.46
  C 257.13 90.46 256.89 90.22 256.90 89.93
  Q 256.98 84.18 256.94 69.24
  Q 256.93 64.49 253.95 62.64
  C 253.68 62.47 253.38 62.35 253.07 62.26
  Q 245.59 60.13 243.19 67.34
  C 243.04 67.79 242.96 68.26 242.96 68.74
  L 242.96 90.05
  C 242.96 90.28 242.77 90.47 242.54 90.47
  L 234.43 90.47
  C 234.17 90.47 233.97 90.26 233.98 90.00
  Q 234.10 87.19 234.07 70.51
  C 234.07 65.66 232.76 61.59 226.88 61.78
  C 223.01 61.91 220.14 65.22 220.11 68.80
  Q 219.99 82.01 220.12 89.73
  C 220.13 90.15 219.79 90.49 219.38 90.49
  L 211.50 90.49
  C 211.12 90.49 210.81 90.18 210.81 89.79
  L 210.81 54.86
  C 210.81 54.40 211.18 54.02 211.64 54.02
  L 218.89 54.02
  C 219.43 54.02 219.82 54.54 219.67 55.06
  Q 219.32 56.30 219.70 58.20
  Z"
/>
<path d="
  M 341.29 72.14
  C 341.28 77.12 344.01 81.72 349.31 82.48
  Q 355.54 83.36 358.62 78.49
  C 358.98 77.94 359.67 77.71 360.28 77.94
  L 367.01 80.48
  C 367.53 80.68 367.71 81.32 367.37 81.76
  C 365.75 83.85 363.30 86.99 361.08 88.36
  Q 349.91 95.24 339.06 87.72
  Q 333.56 83.91 332.27 76.44
  Q 332.12 75.57 332.12 72.12
  Q 332.13 68.68 332.28 67.81
  Q 333.61 60.35 339.13 56.56
  Q 350.01 49.09 361.15 56.02
  C 363.36 57.39 365.80 60.55 367.41 62.64
  C 367.75 63.08 367.57 63.72 367.05 63.92
  L 360.31 66.43
  C 359.69 66.66 359.00 66.43 358.65 65.87
  Q 355.59 60.99 349.36 61.85
  C 344.05 62.58 341.30 67.16 341.29 72.14
  Z"
/>
<rect x="193.67" y="54.02" width="9.62" height="36.44" rx="0.43"/>
<rect x="316.78" y="54.01" width="9.98" height="36.42" rx="0.40"/>
</g>
</svg>
