<?xml version="1.0" encoding="UTF-8" standalone="no"?>
<!DOCTYPE svg PUBLIC "-//W3C//DTD SVG 1.1//EN" "http://www.w3.org/Graphics/SVG/1.1/DTD/svg11.dtd">
<svg xmlns="http://www.w3.org/2000/svg" version="1.1" viewBox="0.00 0.00 117.00 120.00">
<g fill="#2f3f60">
<path d="
  M 107.66 74.33
  C 107.25 74.85 106.46 74.88 105.97 74.39
  Q 96.06 64.39 85.12 54.85
  C 84.31 54.14 83.85 53.13 83.84 52.06
  Q 83.71 27.78 83.98 16.54
  Q 84.09 11.80 88.29 9.87
  C 95.07 6.77 107.89 8.21 107.92 18.26
  Q 108.01 48.98 107.93 73.27
  Q 107.93 73.98 107.66 74.33
  Z"
/>
<path d="
  M 28.63 45.54
  C 28.36 45.39 28.02 45.56 27.99 45.87
  Q 27.70 48.36 27.69 52.25
  Q 27.58 88.95 27.62 103.51
  C 27.64 108.10 24.82 110.18 20.47 111.08
  C 13.69 112.48 3.70 109.35 3.71 100.76
  Q 3.76 38.57 3.68 34.91
  Q 3.49 25.85 5.24 21.81
  C 9.90 11.07 21.41 6.21 32.38 10.31
  Q 35.57 11.51 40.64 16.47
  Q 75.89 50.94 106.67 83.58
  C 106.90 83.82 107.07 84.12 107.18 84.44
  C 109.93 92.94 105.98 102.20 98.63 106.80
  C 95.11 109.00 91.58 109.61 88.56 106.43
  Q 69.31 86.20 34.54 50.67
  C 33.04 49.14 29.80 46.21 28.63 45.54
  Z"
/>
</g>
</svg>
